<svg width="20" height="20" fill="none" xmlns="http://www.w3.org/2000/svg"><path d="M10 5.454c.552 0 1-.407 1-.909s-.448-.909-1-.909-1 .407-1 .91c0 .501.448.908 1 .908ZM4 14.545h12v1.818H4v-1.818ZM8 9.845l2.792 2.54 3.932-3.577L16 10V6.364h-4l1.31 1.159-2.519 2.29L8 7.273l-4 3.636 1.414 1.285L8 9.845Z" fill="#262626"/><path d="M17 1.819h-3.298a4.143 4.143 0 0 0-.32-.387l-.01-.01C12.637.642 11.604.15 10.482.041a2.83 2.83 0 0 0-.964 0c-1.122.108-2.155.601-2.89 1.38l-.01.01a4.15 4.15 0 0 0-.32.386H3c-.795.001-1.558.289-2.12.8C.317 3.13 0 3.823 0 4.546v12.727c0 .723.317 1.416.88 1.927A3.162 3.162 0 0 0 3 20h14c.795 0 1.558-.288 2.12-.8.563-.51.88-1.204.88-1.927V4.546c0-.723-.317-1.417-.88-1.928a3.162 3.162 0 0 0-2.12-.8Zm1 15.454a.87.87 0 0 1-.293.643c-.187.17-.442.266-.707.266H3c-.265 0-.52-.096-.707-.267A.87.87 0 0 1 2 17.273V4.546a.87.87 0 0 1 .293-.643c.188-.17.442-.266.707-.266h4.55c.115-.514.421-.976.868-1.308A2.659 2.659 0 0 1 10 1.816c.577 0 1.136.182 1.582.513.447.332.753.794.868 1.308H17c.265 0 .52.096.707.266a.87.87 0 0 1 .293.643v12.727Z" fill="#262626"/></svg>